<svg width="642" height="321" viewBox="0 0 642 321" fill="none" xmlns="http://www.w3.org/2000/svg">
<g clip-path="url(#clip0_5_148)">
<path d="M135.645 0.00624127C118.203 -0.0236663 100.921 3.3214 84.7541 9.85629C84.1032 10.1225 83.4496 10.39 82.7965 10.6636C58.2276 21.0099 37.2654 38.3627 22.5367 60.5471C7.80806 82.7316 -0.0317033 108.761 -4.94819e-05 135.373V283.082C0.00171216 284.642 0.623452 286.137 1.72877 287.24C2.83409 288.343 4.33271 288.964 5.89587 288.966L6.01294 288.976C119.651 309.57 230.127 320.006 334.463 320.006C336.027 320.006 337.59 320.004 339.151 319.999C441.71 319.688 541.574 309.252 635.966 288.98L636.104 288.966C637.667 288.964 639.166 288.344 640.271 287.241C641.376 286.137 641.998 284.642 642 283.082V5.89007C641.998 4.33013 641.376 2.83458 640.271 1.73153C639.166 0.62849 637.667 0.00803746 636.104 0.00628117L135.645 0.00624127Z" fill="#7F5AF0"/>
<path d="M488.575 117.808C487.553 117.825 486.578 118.242 485.862 118.969C485.145 119.696 484.743 120.675 484.743 121.695C484.743 122.715 485.145 123.695 485.862 124.422C486.578 125.149 487.553 125.566 488.575 125.583H586.241C586.753 125.592 587.262 125.5 587.738 125.312C588.214 125.125 588.649 124.846 589.017 124.491C589.385 124.136 589.679 123.712 589.883 123.243C590.087 122.774 590.196 122.27 590.205 121.759C590.213 121.248 590.12 120.741 589.932 120.266C589.744 119.791 589.464 119.357 589.107 118.99C588.751 118.623 588.326 118.33 587.856 118.127C587.386 117.924 586.881 117.816 586.369 117.808C586.326 117.807 586.284 117.807 586.241 117.808H488.575Z" fill="#3F3D56"/>
<path d="M608.389 116.726C608.318 116.797 608.262 116.881 608.223 116.974C608.185 117.067 608.165 117.166 608.165 117.267C608.165 117.367 608.185 117.466 608.223 117.559C608.262 117.652 608.318 117.736 608.389 117.807L611.68 121.091H603.566C603.363 121.091 603.168 121.172 603.024 121.315C602.88 121.459 602.799 121.653 602.799 121.856C602.799 122.059 602.88 122.254 603.024 122.397C603.168 122.54 603.363 122.621 603.566 122.621H611.68L608.389 125.905C608.318 125.976 608.262 126.06 608.223 126.153C608.185 126.246 608.165 126.345 608.165 126.446C608.165 126.546 608.185 126.646 608.223 126.738C608.262 126.831 608.318 126.915 608.389 126.987C608.461 127.058 608.545 127.114 608.638 127.152C608.731 127.191 608.831 127.211 608.931 127.211C609.032 127.211 609.132 127.191 609.225 127.152C609.318 127.114 609.402 127.058 609.473 126.987L614.072 122.397C614.216 122.254 614.297 122.059 614.297 121.856C614.297 121.653 614.216 121.459 614.072 121.315L609.473 116.726C609.402 116.655 609.318 116.598 609.225 116.56C609.132 116.521 609.032 116.502 608.931 116.502C608.831 116.502 608.731 116.521 608.638 116.56C608.545 116.598 608.461 116.655 608.389 116.726Z" fill="#F4EFF4"/>
<path d="M466.385 116.726C466.456 116.797 466.513 116.881 466.551 116.974C466.59 117.067 466.61 117.166 466.61 117.267C466.61 117.367 466.59 117.466 466.551 117.559C466.513 117.652 466.456 117.736 466.385 117.807L463.095 121.091H471.209C471.309 121.091 471.409 121.11 471.503 121.149C471.596 121.187 471.681 121.243 471.752 121.314C471.823 121.385 471.88 121.47 471.919 121.563C471.957 121.656 471.977 121.755 471.977 121.856C471.977 121.957 471.957 122.056 471.919 122.149C471.88 122.242 471.823 122.327 471.752 122.398C471.681 122.469 471.596 122.525 471.503 122.563C471.409 122.602 471.309 122.621 471.209 122.621H463.095L466.385 125.905C466.529 126.048 466.61 126.243 466.61 126.446C466.61 126.649 466.529 126.843 466.385 126.987C466.241 127.13 466.046 127.211 465.843 127.211C465.64 127.211 465.445 127.13 465.301 126.987L460.702 122.397C460.558 122.254 460.478 122.059 460.478 121.856C460.478 121.653 460.558 121.459 460.702 121.315L465.301 116.726C465.372 116.655 465.457 116.598 465.55 116.56C465.643 116.521 465.742 116.502 465.843 116.502C465.944 116.502 466.043 116.521 466.136 116.56C466.229 116.598 466.314 116.655 466.385 116.726V116.726Z" fill="#F4EFF4"/>
<g opacity="0.4">
<path d="M492.519 37.1264C494.831 37.1264 496.705 35.2561 496.705 32.949C496.705 30.6418 494.831 28.7715 492.519 28.7715C490.207 28.7715 488.333 30.6418 488.333 32.949C488.333 35.2561 490.207 37.1264 492.519 37.1264Z" fill="#F4EFF4"/>
<path d="M509.961 37.1264C512.273 37.1264 514.147 35.2561 514.147 32.949C514.147 30.6419 512.273 28.7716 509.961 28.7716C507.649 28.7716 505.775 30.6419 505.775 32.949C505.775 35.2561 507.649 37.1264 509.961 37.1264Z" fill="#F4EFF4"/>
<path d="M527.402 37.1264C529.714 37.1264 531.588 35.2561 531.588 32.949C531.588 30.6419 529.714 28.7716 527.402 28.7716C525.091 28.7716 523.216 30.6419 523.216 32.949C523.216 35.2561 525.091 37.1264 527.402 37.1264Z" fill="#F4EFF4"/>
<path d="M544.844 37.1264C547.156 37.1264 549.03 35.2561 549.03 32.949C549.03 30.6419 547.156 28.7716 544.844 28.7716C542.532 28.7716 540.658 30.6419 540.658 32.949C540.658 35.2561 542.532 37.1264 544.844 37.1264Z" fill="#F4EFF4"/>
<path d="M562.286 37.1264C564.598 37.1264 566.472 35.2561 566.472 32.949C566.472 30.6419 564.598 28.7716 562.286 28.7716C559.974 28.7716 558.1 30.6419 558.1 32.949C558.1 35.2561 559.974 37.1264 562.286 37.1264Z" fill="#F4EFF4"/>
<path d="M579.728 37.1264C582.04 37.1264 583.914 35.2561 583.914 32.949C583.914 30.6419 582.04 28.7716 579.728 28.7716C577.416 28.7716 575.542 30.6419 575.542 32.949C575.542 35.2561 577.416 37.1264 579.728 37.1264Z" fill="#F4EFF4"/>
<path d="M597.17 37.1264C599.482 37.1264 601.356 35.2561 601.356 32.949C601.356 30.6419 599.482 28.7716 597.17 28.7716C594.858 28.7716 592.984 30.6419 592.984 32.949C592.984 35.2561 594.858 37.1264 597.17 37.1264Z" fill="#F4EFF4"/>
<path d="M492.519 50.3549C494.831 50.3549 496.705 48.4846 496.705 46.1775C496.705 43.8704 494.831 42.0001 492.519 42.0001C490.207 42.0001 488.333 43.8704 488.333 46.1775C488.333 48.4846 490.207 50.3549 492.519 50.3549Z" fill="#F4EFF4"/>
<path d="M509.961 50.3549C512.273 50.3549 514.147 48.4846 514.147 46.1775C514.147 43.8704 512.273 42.0001 509.961 42.0001C507.649 42.0001 505.775 43.8704 505.775 46.1775C505.775 48.4846 507.649 50.3549 509.961 50.3549Z" fill="#F4EFF4"/>
<path d="M527.402 50.3549C529.714 50.3549 531.588 48.4846 531.588 46.1775C531.588 43.8704 529.714 42.0001 527.402 42.0001C525.091 42.0001 523.216 43.8704 523.216 46.1775C523.216 48.4846 525.091 50.3549 527.402 50.3549Z" fill="#F4EFF4"/>
<path d="M544.844 50.3549C547.156 50.3549 549.03 48.4846 549.03 46.1775C549.03 43.8704 547.156 42.0001 544.844 42.0001C542.532 42.0001 540.658 43.8704 540.658 46.1775C540.658 48.4846 542.532 50.3549 544.844 50.3549Z" fill="#F4EFF4"/>
<path d="M562.286 50.3549C564.598 50.3549 566.472 48.4846 566.472 46.1775C566.472 43.8704 564.598 42.0001 562.286 42.0001C559.974 42.0001 558.1 43.8704 558.1 46.1775C558.1 48.4846 559.974 50.3549 562.286 50.3549Z" fill="#F4EFF4"/>
<path d="M579.728 50.3549C582.04 50.3549 583.914 48.4846 583.914 46.1775C583.914 43.8704 582.04 42.0001 579.728 42.0001C577.416 42.0001 575.542 43.8704 575.542 46.1775C575.542 48.4846 577.416 50.3549 579.728 50.3549Z" fill="#F4EFF4"/>
<path d="M597.17 50.3549C599.482 50.3549 601.356 48.4846 601.356 46.1775C601.356 43.8704 599.482 42.0001 597.17 42.0001C594.858 42.0001 592.984 43.8704 592.984 46.1775C592.984 48.4846 594.858 50.3549 597.17 50.3549Z" fill="#F4EFF4"/>
<path d="M492.519 63.5834C494.831 63.5834 496.705 61.7131 496.705 59.406C496.705 57.0989 494.831 55.2286 492.519 55.2286C490.207 55.2286 488.333 57.0989 488.333 59.406C488.333 61.7131 490.207 63.5834 492.519 63.5834Z" fill="#F4EFF4"/>
<path d="M509.961 63.5834C512.273 63.5834 514.147 61.7131 514.147 59.406C514.147 57.0989 512.273 55.2286 509.961 55.2286C507.649 55.2286 505.775 57.0989 505.775 59.406C505.775 61.7131 507.649 63.5834 509.961 63.5834Z" fill="#F4EFF4"/>
<path d="M527.402 63.5834C529.714 63.5834 531.588 61.7131 531.588 59.406C531.588 57.0989 529.714 55.2286 527.402 55.2286C525.091 55.2286 523.216 57.0989 523.216 59.406C523.216 61.7131 525.091 63.5834 527.402 63.5834Z" fill="#F4EFF4"/>
<path d="M544.844 63.5834C547.156 63.5834 549.03 61.7131 549.03 59.406C549.03 57.0989 547.156 55.2286 544.844 55.2286C542.532 55.2286 540.658 57.0989 540.658 59.406C540.658 61.7131 542.532 63.5834 544.844 63.5834Z" fill="#F4EFF4"/>
<path d="M562.286 63.5834C564.598 63.5834 566.472 61.7131 566.472 59.406C566.472 57.0989 564.598 55.2286 562.286 55.2286C559.974 55.2286 558.1 57.0989 558.1 59.406C558.1 61.7131 559.974 63.5834 562.286 63.5834Z" fill="#F4EFF4"/>
<path d="M579.728 63.5834C582.04 63.5834 583.914 61.7131 583.914 59.406C583.914 57.0989 582.04 55.2286 579.728 55.2286C577.416 55.2286 575.542 57.0989 575.542 59.406C575.542 61.7131 577.416 63.5834 579.728 63.5834Z" fill="#F4EFF4"/>
<path d="M597.17 63.5834C599.482 63.5834 601.356 61.7131 601.356 59.406C601.356 57.0989 599.482 55.2286 597.17 55.2286C594.858 55.2286 592.984 57.0989 592.984 59.406C592.984 61.7131 594.858 63.5834 597.17 63.5834Z" fill="#F4EFF4"/>
<path d="M492.519 76.812C494.831 76.812 496.705 74.9417 496.705 72.6345C496.705 70.3274 494.831 68.4571 492.519 68.4571C490.207 68.4571 488.333 70.3274 488.333 72.6345C488.333 74.9417 490.207 76.812 492.519 76.812Z" fill="#F4EFF4"/>
<path d="M509.961 76.812C512.273 76.812 514.147 74.9417 514.147 72.6345C514.147 70.3274 512.273 68.4571 509.961 68.4571C507.649 68.4571 505.775 70.3274 505.775 72.6345C505.775 74.9417 507.649 76.812 509.961 76.812Z" fill="#F4EFF4"/>
<path d="M492.519 90.0405C494.831 90.0405 496.705 88.1702 496.705 85.863C496.705 83.5559 494.831 81.6856 492.519 81.6856C490.207 81.6856 488.333 83.5559 488.333 85.863C488.333 88.1702 490.207 90.0405 492.519 90.0405Z" fill="#F4EFF4"/>
<path d="M509.961 90.0405C512.273 90.0405 514.147 88.1702 514.147 85.863C514.147 83.5559 512.273 81.6856 509.961 81.6856C507.649 81.6856 505.775 83.5559 505.775 85.863C505.775 88.1702 507.649 90.0405 509.961 90.0405Z" fill="#F4EFF4"/>
<path d="M527.402 90.0405C529.714 90.0405 531.588 88.1702 531.588 85.863C531.588 83.5559 529.714 81.6856 527.402 81.6856C525.091 81.6856 523.216 83.5559 523.216 85.863C523.216 88.1702 525.091 90.0405 527.402 90.0405Z" fill="#F4EFF4"/>
<path d="M527.402 76.812C529.714 76.812 531.588 74.9417 531.588 72.6345C531.588 70.3274 529.714 68.4571 527.402 68.4571C525.091 68.4571 523.216 70.3274 523.216 72.6345C523.216 74.9417 525.091 76.812 527.402 76.812Z" fill="#F4EFF4"/>
<path d="M544.844 76.812C547.156 76.812 549.03 74.9417 549.03 72.6345C549.03 70.3274 547.156 68.4571 544.844 68.4571C542.532 68.4571 540.658 70.3274 540.658 72.6345C540.658 74.9417 542.532 76.812 544.844 76.812Z" fill="#F4EFF4"/>
<path d="M562.286 76.812C564.598 76.812 566.472 74.9417 566.472 72.6345C566.472 70.3274 564.598 68.4571 562.286 68.4571C559.974 68.4571 558.1 70.3274 558.1 72.6345C558.1 74.9417 559.974 76.812 562.286 76.812Z" fill="#F4EFF4"/>
<path d="M579.728 76.812C582.04 76.812 583.914 74.9417 583.914 72.6345C583.914 70.3274 582.04 68.4571 579.728 68.4571C577.416 68.4571 575.542 70.3274 575.542 72.6345C575.542 74.9417 577.416 76.812 579.728 76.812Z" fill="#F4EFF4"/>
<path d="M597.17 76.812C599.482 76.812 601.356 74.9417 601.356 72.6345C601.356 70.3274 599.482 68.4571 597.17 68.4571C594.858 68.4571 592.984 70.3274 592.984 72.6345C592.984 74.9417 594.858 76.812 597.17 76.812Z" fill="#F4EFF4"/>
</g>
<path d="M432.47 245.464C427.9 245.464 423.433 244.112 419.633 241.578C415.833 239.044 412.871 235.443 411.122 231.229C409.373 227.016 408.916 222.379 409.807 217.906C410.699 213.433 412.9 209.324 416.131 206.099C419.363 202.874 423.48 200.678 427.962 199.788C432.445 198.899 437.091 199.355 441.313 201.101C445.535 202.846 449.144 205.801 451.683 209.594C454.222 213.386 455.577 217.844 455.577 222.405C455.57 228.518 453.134 234.38 448.802 238.703C444.47 243.026 438.597 245.457 432.47 245.464V245.464ZM432.47 200.653C428.159 200.653 423.945 201.929 420.361 204.319C416.776 206.709 413.982 210.106 412.333 214.081C410.683 218.055 410.251 222.429 411.092 226.648C411.933 230.868 414.009 234.744 417.058 237.786C420.106 240.828 423.99 242.9 428.218 243.739C432.446 244.578 436.829 244.147 440.812 242.501C444.795 240.855 448.199 238.067 450.594 234.49C452.989 230.912 454.267 226.707 454.267 222.405C454.261 216.638 451.962 211.109 447.876 207.031C443.79 202.953 438.249 200.659 432.47 200.653V200.653Z" fill="#3F3D56"/>
<path d="M441.33 220.195H434.685V213.564C434.685 212.978 434.452 212.416 434.037 212.001C433.621 211.587 433.058 211.354 432.471 211.354C431.883 211.354 431.32 211.587 430.904 212.001C430.489 212.416 430.256 212.978 430.256 213.564V220.195H423.612C423.024 220.195 422.461 220.427 422.045 220.842C421.63 221.256 421.397 221.819 421.397 222.405C421.397 222.991 421.63 223.553 422.045 223.968C422.461 224.382 423.024 224.615 423.612 224.615H430.256V231.246C430.256 231.832 430.489 232.394 430.904 232.808C431.32 233.223 431.883 233.456 432.471 233.456C433.058 233.456 433.621 233.223 434.037 232.808C434.452 232.394 434.685 231.832 434.685 231.246V224.615H441.33C441.917 224.615 442.48 224.382 442.896 223.968C443.311 223.553 443.544 222.991 443.544 222.405C443.544 221.819 443.311 221.256 442.896 220.842C442.48 220.427 441.917 220.195 441.33 220.195V220.195Z" fill="#F4EFF4"/>
<g opacity="0.4">
<path d="M35.3912 248.295C37.2088 248.295 38.6823 246.825 38.6823 245.011C38.6823 243.197 37.2088 241.727 35.3912 241.727C33.5735 241.727 32.1 243.197 32.1 245.011C32.1 246.825 33.5735 248.295 35.3912 248.295Z" fill="#F4EFF4"/>
<path d="M35.3912 234.61C37.2088 234.61 38.6823 233.14 38.6823 231.326C38.6823 229.512 37.2088 228.042 35.3912 228.042C33.5735 228.042 32.1 229.512 32.1 231.326C32.1 233.14 33.5735 234.61 35.3912 234.61Z" fill="#F4EFF4"/>
<path d="M35.3912 220.925C37.2088 220.925 38.6823 219.455 38.6823 217.641C38.6823 215.827 37.2088 214.357 35.3912 214.357C33.5735 214.357 32.1 215.827 32.1 217.641C32.1 219.455 33.5735 220.925 35.3912 220.925Z" fill="#F4EFF4"/>
<path d="M35.3912 207.24C37.2088 207.24 38.6823 205.77 38.6823 203.956C38.6823 202.142 37.2088 200.672 35.3912 200.672C33.5735 200.672 32.1 202.142 32.1 203.956C32.1 205.77 33.5735 207.24 35.3912 207.24Z" fill="#F4EFF4"/>
<path d="M35.3912 193.555C37.2088 193.555 38.6823 192.085 38.6823 190.271C38.6823 188.457 37.2088 186.986 35.3912 186.986C33.5735 186.986 32.1 188.457 32.1 190.271C32.1 192.085 33.5735 193.555 35.3912 193.555Z" fill="#F4EFF4"/>
<path d="M35.3912 179.87C37.2088 179.87 38.6823 178.4 38.6823 176.586C38.6823 174.772 37.2088 173.301 35.3912 173.301C33.5735 173.301 32.1 174.772 32.1 176.586C32.1 178.4 33.5735 179.87 35.3912 179.87Z" fill="#F4EFF4"/>
<path d="M35.3912 166.185C37.2088 166.185 38.6824 164.715 38.6824 162.901C38.6824 161.087 37.2088 159.616 35.3912 159.616C33.5735 159.616 32.1 161.087 32.1 162.901C32.1 164.715 33.5735 166.185 35.3912 166.185Z" fill="#F4EFF4"/>
<path d="M45.8132 248.295C47.6309 248.295 49.1044 246.825 49.1044 245.011C49.1044 243.197 47.6309 241.727 45.8132 241.727C43.9956 241.727 42.5221 243.197 42.5221 245.011C42.5221 246.825 43.9956 248.295 45.8132 248.295Z" fill="#F4EFF4"/>
<path d="M45.8132 234.61C47.6309 234.61 49.1044 233.14 49.1044 231.326C49.1044 229.512 47.6309 228.042 45.8132 228.042C43.9956 228.042 42.5221 229.512 42.5221 231.326C42.5221 233.14 43.9956 234.61 45.8132 234.61Z" fill="#F4EFF4"/>
<path d="M45.8132 220.925C47.6309 220.925 49.1044 219.455 49.1044 217.641C49.1044 215.827 47.6309 214.357 45.8132 214.357C43.9956 214.357 42.5221 215.827 42.5221 217.641C42.5221 219.455 43.9956 220.925 45.8132 220.925Z" fill="#F4EFF4"/>
<path d="M45.8132 207.24C47.6309 207.24 49.1044 205.77 49.1044 203.956C49.1044 202.142 47.6309 200.672 45.8132 200.672C43.9956 200.672 42.5221 202.142 42.5221 203.956C42.5221 205.77 43.9956 207.24 45.8132 207.24Z" fill="#F4EFF4"/>
<path d="M45.8132 193.555C47.6309 193.555 49.1044 192.085 49.1044 190.271C49.1044 188.457 47.6309 186.986 45.8132 186.986C43.9956 186.986 42.5221 188.457 42.5221 190.271C42.5221 192.085 43.9956 193.555 45.8132 193.555Z" fill="#F4EFF4"/>
<path d="M45.8132 179.87C47.6309 179.87 49.1044 178.4 49.1044 176.586C49.1044 174.772 47.6309 173.301 45.8132 173.301C43.9956 173.301 42.5221 174.772 42.5221 176.586C42.5221 178.4 43.9956 179.87 45.8132 179.87Z" fill="#F4EFF4"/>
<path d="M45.8132 166.185C47.6309 166.185 49.1044 164.715 49.1044 162.901C49.1044 161.087 47.6309 159.616 45.8132 159.616C43.9956 159.616 42.5221 161.087 42.5221 162.901C42.5221 164.715 43.9956 166.185 45.8132 166.185Z" fill="#F4EFF4"/>
<path d="M56.2353 248.295C58.0529 248.295 59.5264 246.825 59.5264 245.011C59.5264 243.197 58.0529 241.727 56.2353 241.727C54.4176 241.727 52.9441 243.197 52.9441 245.011C52.9441 246.825 54.4176 248.295 56.2353 248.295Z" fill="#F4EFF4"/>
<path d="M56.2353 234.61C58.0529 234.61 59.5264 233.14 59.5264 231.326C59.5264 229.512 58.0529 228.042 56.2353 228.042C54.4176 228.042 52.9441 229.512 52.9441 231.326C52.9441 233.14 54.4176 234.61 56.2353 234.61Z" fill="#F4EFF4"/>
<path d="M56.2353 220.925C58.0529 220.925 59.5264 219.455 59.5264 217.641C59.5264 215.827 58.0529 214.357 56.2353 214.357C54.4176 214.357 52.9441 215.827 52.9441 217.641C52.9441 219.455 54.4176 220.925 56.2353 220.925Z" fill="#F4EFF4"/>
<path d="M56.2353 207.24C58.0529 207.24 59.5264 205.77 59.5264 203.956C59.5264 202.142 58.0529 200.672 56.2353 200.672C54.4176 200.672 52.9441 202.142 52.9441 203.956C52.9441 205.77 54.4176 207.24 56.2353 207.24Z" fill="#F4EFF4"/>
<path d="M56.2353 193.555C58.0529 193.555 59.5264 192.085 59.5264 190.271C59.5264 188.457 58.0529 186.986 56.2353 186.986C54.4176 186.986 52.9441 188.457 52.9441 190.271C52.9441 192.085 54.4176 193.555 56.2353 193.555Z" fill="#F4EFF4"/>
<path d="M56.2353 179.87C58.0529 179.87 59.5264 178.4 59.5264 176.586C59.5264 174.772 58.0529 173.301 56.2353 173.301C54.4176 173.301 52.9441 174.772 52.9441 176.586C52.9441 178.4 54.4176 179.87 56.2353 179.87Z" fill="#F4EFF4"/>
<path d="M56.2353 166.185C58.0529 166.185 59.5264 164.715 59.5264 162.901C59.5264 161.087 58.0529 159.616 56.2353 159.616C54.4176 159.616 52.9441 161.087 52.9441 162.901C52.9441 164.715 54.4176 166.185 56.2353 166.185Z" fill="#F4EFF4"/>
<path d="M66.6573 248.295C68.475 248.295 69.9485 246.825 69.9485 245.011C69.9485 243.197 68.475 241.727 66.6573 241.727C64.8397 241.727 63.3661 243.197 63.3661 245.011C63.3661 246.825 64.8397 248.295 66.6573 248.295Z" fill="#F4EFF4"/>
<path d="M66.6573 234.61C68.475 234.61 69.9485 233.14 69.9485 231.326C69.9485 229.512 68.475 228.042 66.6573 228.042C64.8397 228.042 63.3661 229.512 63.3661 231.326C63.3661 233.14 64.8397 234.61 66.6573 234.61Z" fill="#F4EFF4"/>
<path d="M77.0794 248.295C78.897 248.295 80.3705 246.825 80.3705 245.011C80.3705 243.197 78.897 241.727 77.0794 241.727C75.2617 241.727 73.7882 243.197 73.7882 245.011C73.7882 246.825 75.2617 248.295 77.0794 248.295Z" fill="#F4EFF4"/>
<path d="M77.0794 234.61C78.897 234.61 80.3705 233.14 80.3705 231.326C80.3705 229.512 78.897 228.042 77.0794 228.042C75.2617 228.042 73.7882 229.512 73.7882 231.326C73.7882 233.14 75.2617 234.61 77.0794 234.61Z" fill="#F4EFF4"/>
<path d="M77.0794 220.925C78.897 220.925 80.3705 219.455 80.3705 217.641C80.3705 215.827 78.897 214.357 77.0794 214.357C75.2617 214.357 73.7882 215.827 73.7882 217.641C73.7882 219.455 75.2617 220.925 77.0794 220.925Z" fill="#F4EFF4"/>
<path d="M66.6573 220.925C68.475 220.925 69.9485 219.455 69.9485 217.641C69.9485 215.827 68.475 214.357 66.6573 214.357C64.8397 214.357 63.3661 215.827 63.3661 217.641C63.3661 219.455 64.8397 220.925 66.6573 220.925Z" fill="#F4EFF4"/>
<path d="M66.6573 207.24C68.475 207.24 69.9485 205.77 69.9485 203.956C69.9485 202.142 68.475 200.672 66.6573 200.672C64.8397 200.672 63.3661 202.142 63.3661 203.956C63.3661 205.77 64.8397 207.24 66.6573 207.24Z" fill="#F4EFF4"/>
<path d="M66.6573 193.555C68.475 193.555 69.9485 192.085 69.9485 190.271C69.9485 188.457 68.475 186.986 66.6573 186.986C64.8397 186.986 63.3661 188.457 63.3661 190.271C63.3661 192.085 64.8397 193.555 66.6573 193.555Z" fill="#F4EFF4"/>
<path d="M66.6573 179.87C68.475 179.87 69.9485 178.4 69.9485 176.586C69.9485 174.772 68.475 173.301 66.6573 173.301C64.8397 173.301 63.3661 174.772 63.3661 176.586C63.3661 178.4 64.8397 179.87 66.6573 179.87Z" fill="#F4EFF4"/>
<path d="M66.6573 166.185C68.475 166.185 69.9485 164.715 69.9485 162.901C69.9485 161.087 68.475 159.616 66.6573 159.616C64.8397 159.616 63.3661 161.087 63.3661 162.901C63.3661 164.715 64.8397 166.185 66.6573 166.185Z" fill="#F4EFF4"/>
</g>
<path d="M325.853 21.5817H107.218C106.144 21.5828 105.115 22.009 104.356 22.7667C103.596 23.5244 103.169 24.5518 103.168 25.6234V212.194C103.169 213.266 103.596 214.293 104.356 215.051C105.115 215.808 106.144 216.235 107.218 216.236H325.853C326.927 216.235 327.957 215.808 328.716 215.051C329.475 214.293 329.902 213.266 329.903 212.194V25.6234C329.902 24.5518 329.475 23.5244 328.716 22.7667C327.957 22.0089 326.927 21.5828 325.853 21.5817ZM328.28 212.194C328.28 212.837 328.024 213.454 327.57 213.909C327.115 214.364 326.498 214.621 325.853 214.624H107.218C106.573 214.623 105.956 214.366 105.5 213.91C105.045 213.455 104.79 212.837 104.791 212.194V25.6234C104.79 24.9801 105.045 24.3627 105.5 23.9071C105.956 23.4514 106.573 23.1949 107.218 23.1938H325.853C326.498 23.1961 327.115 23.4531 327.57 23.9085C328.024 24.3638 328.28 24.9805 328.28 25.6234V212.194Z" fill="#3F3D56"/>
<path d="M157.685 183.062C157.685 183.349 157.677 183.637 157.662 183.917C157.441 188.128 155.61 192.093 152.546 194.996C149.481 197.898 145.417 199.516 141.192 199.516C136.967 199.516 132.904 197.898 129.839 194.996C126.775 192.093 124.943 188.128 124.723 183.917C124.708 183.637 124.7 183.349 124.7 183.062C124.699 180.899 125.124 178.758 125.953 176.76C126.781 174.762 127.995 172.947 129.527 171.417C131.059 169.888 132.877 168.675 134.879 167.847C136.88 167.019 139.026 166.593 141.192 166.593C143.359 166.593 145.505 167.019 147.506 167.847C149.508 168.675 151.326 169.888 152.858 171.417C154.389 172.947 155.604 174.762 156.432 176.76C157.26 178.758 157.686 180.899 157.685 183.062Z" fill="#F4EFF4"/>
<path d="M308.864 172.087H179.277C178.549 172.088 177.851 172.378 177.336 172.892C176.821 173.406 176.532 174.104 176.532 174.831C176.532 175.558 176.821 176.255 177.336 176.769C177.851 177.284 178.549 177.573 179.277 177.574H308.864C309.593 177.573 310.291 177.284 310.806 176.769C311.32 176.255 311.609 175.558 311.609 174.831C311.609 174.104 311.32 173.406 310.806 172.892C310.291 172.378 309.593 172.088 308.864 172.087V172.087Z" fill="#3F3D56"/>
<path d="M235.038 188.549H179.277C178.549 188.549 177.851 188.838 177.336 189.352C176.821 189.865 176.532 190.562 176.532 191.289C176.532 192.016 176.821 192.713 177.336 193.226C177.851 193.74 178.549 194.029 179.277 194.029H235.038C235.766 194.029 236.464 193.74 236.979 193.226C237.494 192.713 237.783 192.016 237.783 191.289C237.783 190.562 237.494 189.865 236.979 189.352C236.464 188.838 235.766 188.549 235.038 188.549Z" fill="#F4EFF4"/>
<path d="M377.796 152.711H159.162C157.677 152.709 156.254 152.12 155.204 151.072C154.154 150.024 153.564 148.603 153.562 147.122V51.3714C153.564 49.8896 154.154 48.469 155.204 47.4212C156.254 46.3734 157.677 45.784 159.162 45.7822H377.796C379.281 45.784 380.705 46.3734 381.754 47.4212C382.804 48.469 383.395 49.8896 383.397 51.3714V147.121C383.395 148.603 382.804 150.024 381.755 151.072C380.705 152.12 379.281 152.709 377.796 152.711V152.711ZM159.162 47.7435C158.199 47.7446 157.275 48.1272 156.593 48.8074C155.912 49.4875 155.528 50.4096 155.527 51.3714V147.121C155.528 148.083 155.912 149.005 156.593 149.686C157.274 150.366 158.198 150.749 159.162 150.75H377.796C378.76 150.749 379.684 150.366 380.365 149.686C381.047 149.005 381.43 148.083 381.431 147.121V51.3714C381.43 50.4096 381.047 49.4875 380.365 48.8074C379.684 48.1272 378.76 47.7446 377.796 47.7435H159.162Z" fill="#F4EFF4"/>
<path d="M203.687 80.7054C202.958 80.7054 202.259 80.9944 201.743 81.5088C201.228 82.0233 200.938 82.721 200.938 83.4485C200.938 84.176 201.228 84.8737 201.743 85.3882C202.259 85.9026 202.958 86.1916 203.687 86.1916H333.271C334 86.1916 334.699 85.9026 335.215 85.3882C335.73 84.8737 336.02 84.176 336.02 83.4485C336.02 82.721 335.73 82.0233 335.215 81.5088C334.699 80.9944 334 80.7054 333.271 80.7054H203.687Z" fill="#F4EFF4"/>
<path d="M203.687 96.5999C202.958 96.5999 202.259 96.8889 201.743 97.4033C201.228 97.9177 200.938 98.6155 200.938 99.343C200.938 100.07 201.228 100.768 201.743 101.283C202.259 101.797 202.958 102.086 203.687 102.086H333.271C333.999 102.085 334.697 101.795 335.212 101.281C335.727 100.767 336.016 100.07 336.016 99.343C336.016 98.6162 335.727 97.9191 335.212 97.4048C334.697 96.8905 333.999 96.601 333.271 96.5999H203.687Z" fill="#F4EFF4"/>
<path d="M203.687 112.302C202.958 112.302 202.259 112.591 201.743 113.105C201.228 113.619 200.938 114.317 200.938 115.045C200.938 115.772 201.228 116.47 201.743 116.984C202.259 117.499 202.958 117.788 203.687 117.788H259.447C260.176 117.787 260.874 117.497 261.388 116.983C261.903 116.469 262.192 115.771 262.192 115.045C262.192 114.318 261.903 113.621 261.388 113.107C260.874 112.592 260.176 112.303 259.447 112.302H203.687Z" fill="#F4EFF4"/>
<path d="M413.843 193.278L391.885 162.35L398.993 163.828C399.12 163.855 399.25 163.856 399.377 163.832C399.504 163.808 399.625 163.759 399.733 163.689C399.841 163.618 399.934 163.527 400.006 163.42C400.079 163.314 400.13 163.194 400.156 163.068C400.183 162.942 400.184 162.811 400.16 162.685C400.136 162.558 400.087 162.438 400.016 162.33C399.945 162.222 399.854 162.129 399.747 162.057C399.641 161.984 399.521 161.933 399.394 161.907L388.801 159.706L387.371 170.409C387.353 170.536 387.361 170.667 387.394 170.791C387.427 170.916 387.485 171.033 387.563 171.136C387.642 171.239 387.74 171.325 387.852 171.39C387.964 171.455 388.087 171.497 388.215 171.514C388.344 171.531 388.474 171.522 388.599 171.489C388.724 171.456 388.841 171.398 388.944 171.32C389.047 171.241 389.133 171.143 389.197 171.031C389.262 170.919 389.304 170.796 389.32 170.668L390.279 163.481L412.24 194.411C412.315 194.517 412.409 194.606 412.519 194.674C412.628 194.743 412.75 194.789 412.877 194.811C413.004 194.833 413.134 194.829 413.26 194.801C413.386 194.772 413.505 194.719 413.61 194.645C413.715 194.57 413.805 194.476 413.873 194.367C413.942 194.258 413.989 194.136 414.01 194.009C414.032 193.882 414.028 193.752 414 193.627C413.971 193.501 413.918 193.383 413.843 193.278V193.278Z" fill="#F4EFF4"/>
<path d="M294.577 283.292H138.494C137.728 283.291 136.993 282.986 136.452 282.446C135.91 281.905 135.605 281.172 135.604 280.407V241.769C135.605 241.005 135.91 240.271 136.452 239.731C136.993 239.19 137.728 238.886 138.494 238.885H294.577C295.343 238.886 296.078 239.19 296.62 239.731C297.162 240.271 297.467 241.005 297.467 241.769V280.407C297.467 281.172 297.162 281.905 296.62 282.446C296.078 282.986 295.343 283.291 294.577 283.292V283.292ZM138.494 240.039C138.035 240.039 137.594 240.222 137.269 240.546C136.943 240.871 136.761 241.31 136.76 241.769V280.407C136.761 280.866 136.943 281.306 137.269 281.63C137.594 281.955 138.035 282.137 138.494 282.138H294.577C295.037 282.137 295.478 281.955 295.803 281.63C296.128 281.306 296.311 280.866 296.311 280.407V241.769C296.311 241.31 296.128 240.871 295.803 240.546C295.478 240.222 295.037 240.039 294.577 240.039H138.494Z" fill="#3F3D56"/>
<path d="M162.746 271.355C169.249 271.355 174.52 266.095 174.52 259.606C174.52 253.116 169.249 247.856 162.746 247.856C156.244 247.856 150.972 253.116 150.972 259.606C150.972 266.095 156.244 271.355 162.746 271.355Z" fill="#F4EFF4"/>
<path d="M189.939 251.772C189.681 251.772 189.425 251.822 189.187 251.92C188.948 252.019 188.732 252.163 188.549 252.345C188.366 252.527 188.221 252.743 188.123 252.981C188.024 253.218 187.973 253.473 187.973 253.731C187.973 253.988 188.024 254.243 188.123 254.481C188.221 254.719 188.366 254.935 188.549 255.117C188.732 255.299 188.948 255.443 189.187 255.541C189.425 255.639 189.681 255.69 189.939 255.689H282.449C282.969 255.689 283.469 255.483 283.837 255.115C284.205 254.748 284.411 254.25 284.411 253.731C284.411 253.211 284.205 252.713 283.837 252.346C283.469 251.979 282.969 251.772 282.449 251.772H189.939Z" fill="#F4EFF4"/>
<path d="M189.939 263.522C189.681 263.522 189.425 263.572 189.187 263.67C188.948 263.768 188.732 263.913 188.549 264.095C188.366 264.276 188.221 264.492 188.123 264.73C188.024 264.968 187.973 265.223 187.973 265.481C187.973 265.738 188.024 265.993 188.123 266.231C188.221 266.469 188.366 266.685 188.549 266.867C188.732 267.048 188.948 267.193 189.187 267.291C189.425 267.389 189.681 267.439 189.939 267.439H229.746C230.267 267.439 230.766 267.233 231.134 266.865C231.502 266.498 231.709 266 231.709 265.481C231.709 264.961 231.502 264.463 231.134 264.096C230.766 263.729 230.267 263.522 229.746 263.522H189.939Z" fill="#F4EFF4"/>
<path d="M500.514 145.634H569.884C570.651 145.635 571.385 145.939 571.927 146.48C572.469 147.021 572.774 147.754 572.775 148.518V220.616C572.774 221.381 572.469 222.114 571.927 222.655C571.385 223.195 570.651 223.5 569.884 223.501H500.514C499.748 223.5 499.013 223.195 498.471 222.655C497.929 222.114 497.624 221.381 497.624 220.616V148.518C497.624 147.754 497.929 147.021 498.471 146.48C499.013 145.939 499.748 145.635 500.514 145.634V145.634ZM569.884 222.347C570.344 222.346 570.785 222.164 571.11 221.839C571.435 221.515 571.618 221.075 571.619 220.616V148.518C571.618 148.06 571.435 147.62 571.11 147.295C570.785 146.971 570.344 146.788 569.884 146.788H500.514C500.054 146.788 499.613 146.971 499.288 147.295C498.963 147.62 498.78 148.06 498.78 148.518V220.616C498.78 221.075 498.963 221.515 499.288 221.839C499.613 222.164 500.054 222.346 500.514 222.347H569.884Z" fill="#3F3D56"/>
<path d="M555.103 208.633C555.623 208.633 556.122 208.426 556.49 208.059C556.858 207.692 557.065 207.194 557.065 206.674C557.065 206.155 556.858 205.657 556.49 205.29C556.122 204.922 555.623 204.716 555.103 204.716H515.295C514.775 204.716 514.276 204.922 513.908 205.29C513.54 205.657 513.333 206.155 513.333 206.674C513.333 207.194 513.54 207.692 513.908 208.059C514.276 208.426 514.775 208.633 515.295 208.633H555.103Z" fill="#F4EFF4"/>
<path d="M555.103 197.095C555.361 197.095 555.616 197.045 555.855 196.947C556.093 196.849 556.31 196.704 556.493 196.523C556.675 196.341 556.82 196.125 556.919 195.887C557.018 195.649 557.069 195.394 557.069 195.137C557.069 194.879 557.018 194.624 556.919 194.386C556.82 194.148 556.675 193.932 556.493 193.751C556.31 193.569 556.093 193.424 555.855 193.326C555.616 193.228 555.361 193.178 555.103 193.178H515.295C515.037 193.178 514.782 193.228 514.543 193.326C514.305 193.424 514.088 193.569 513.906 193.751C513.723 193.932 513.578 194.148 513.479 194.386C513.38 194.624 513.329 194.879 513.329 195.137C513.329 195.394 513.38 195.649 513.479 195.887C513.578 196.125 513.723 196.341 513.906 196.523C514.088 196.704 514.305 196.849 514.543 196.947C514.782 197.045 515.037 197.095 515.295 197.095H555.103Z" fill="#F4EFF4"/>
<path d="M535.199 160.502C537.642 160.502 540.03 161.225 542.061 162.579C544.093 163.934 545.676 165.859 546.611 168.111C547.546 170.364 547.79 172.842 547.314 175.233C546.837 177.624 545.661 179.821 543.933 181.545C542.206 183.269 540.005 184.443 537.609 184.918C535.213 185.394 532.729 185.15 530.472 184.217C528.215 183.284 526.286 181.704 524.929 179.677C523.571 177.65 522.847 175.266 522.847 172.828C522.851 169.56 524.153 166.427 526.469 164.116C528.785 161.805 531.924 160.505 535.199 160.502Z" fill="#F4EFF4"/>
</g>
<defs>
<clipPath id="clip0_5_148">
<rect width="642" height="320" fill="white" transform="translate(0 0.00634766)"/>
</clipPath>
</defs>
</svg>
